<?xml version="1.0" encoding="utf-8"?>
<!-- Generator: Adobe Illustrator 21.1.0, SVG Export Plug-In . SVG Version: 6.00 Build 0)  -->
<svg version="1.1" id="Layer_1" xmlns="http://www.w3.org/2000/svg" xmlns:xlink="http://www.w3.org/1999/xlink" x="0px" y="0px"
	 viewBox="0 0 569.3 209.3" enable-background="new 0 0 569.3 209.3" xml:space="preserve">
<g>
	<path fill="#FFCD00" d="M212.7,122.5c-5.4-9.2-14.8-17.5-26.4-22.9c-7.8-3.6-12.6-3.9-20-5.2c7.6-1.8,10.5-2.4,15.5-6.2
		c15.1-11.3,30.7-37.6,24.6-44.8c-7.6-8.9-23.4-6.7-39.5-0.9c-0.9,0.3-1.7,0.7-2.6,1.1c-1.7-15.7,1.1-34.8-9.1-42.9
		c-7.4-5.9-32.7,20.6-40.7,38.8C103,33.3,82.5,18.5,71.2,21.6c-6.1,1.6-6.6,30.5,0.6,44c4.5,8.5,27.7,18.9,41.6,25.1l-5.1-1.9
		c-14.7-5.9-31.2-11.7-45.5-6c-17.3,7-39.8,29.9-37.2,36c7.9,18.3,53.1,19.6,77.6,12.8c12.7-3.5,23.3-19.6,10.5-2.3
		c-6.9,9.3-4,32.8,1.1,44.3c7.9,18,25.7,37.4,35.2,35.6c9.5-1.7,20.3-34.5,18.8-51.1c-0.8-8.9-6.6-19.7-12-27.5c2,1.4,4.8,4,9.7,5.3
		C186.6,141.4,228.1,145.9,212.7,122.5"/>
	<path fill="#FF9E1B" d="M160.3,72.4c-1-3.2-2.8-6.8-6.5-9.9c-0.6-0.5-1.3-1-2.1-1.4c0-1.7-0.5-4-1.6-5.9c-1.2-2.1-2.6-3.4-3.8-4.2
		c-0.5-0.4-1.4-1-1.8-1.2l-0.3-0.1l-0.1,0l-0.5-0.2l-0.2-0.1l-0.9-0.4c-2.5-0.8-4.4-0.8-5.9-0.6c-2.7,0.4-4.2,1-5.5,1.6
		c-2.5,1.1-4.1,2.2-5.7,3.1c-0.2,0.1-0.4,0.3-0.7,0.4c-0.1-0.1-0.1-0.1-0.2-0.2c-1.1-1-2.2-1.8-3.4-2.4c-1.2-0.6-2.7-1.1-4.2-1.2
		c-1.5-0.1-2.9,0.1-4.3,0.4c-1.8,0.4-3.6,1.2-5.4,2.1c-1.1,0.6-2.2,1-3.2,1.5c-0.9,0.4-1.6,0.8-2.6,1.4c-1.9,1.1-3.6,2.5-5,4.1
		c-0.7,0.8-1.3,1.6-1.9,2.5c-0.3,0.4-0.6,1-0.7,1.2l-0.4,0.7c-0.2,0.3-0.3,0.6-0.5,1c-0.6,1.3-1.1,2.9-1.1,4.6c0,0.8,0,1.7,0.2,2.5
		c0.1,0.8,0.3,1.5,0.4,1.7c0.8,1.9,1.7,1.7,2.6,2.7c0.5,0.5,0.3,1.2,0,1.6c-0.3,0.4-0.7,0.7-1.2,0.9c-0.5,0.3-0.8,0.4-1.3,1.1
		c-1.4,2-1.1,2.4-1.5,3.4c-0.2,0.9-0.3,2-0.2,3.1c0.1,2.3,1.5,4.6,2.8,5.8c1.3,1.2,2.6,1.9,3.7,2.4c2.2,1,4.2,1.5,6,2.1
		c1.3,0.4,2.5,1,3.3,1.4c0,1.5,0.5,3,1.2,4.2c1.1,1.8,2.5,3,4,4c3,1.9,6.5,2.9,10,3.1c7,0.5,15.3-1.9,21.6-7.4
		c-6.4,1.7-11.4,1.1-14.1,0.2c-1.4-0.2-2.6-1.3-2.9-1.6c-5.3-5,4.2-3.7,4.2-3.7s-3.8-1.5-5.8-5.2c-1.2-2.3,0.4-5.9,3.7-4.4
		c3,2.4,1-1.3,1-1.3s-2.2-5.8,1.2-8.9c1.7-1.6,5.5,0.1,6.5,3.8c1.5,4.3,1.4,1.5,3.8-0.3c2.3-1.9,9.7-1.4,7,7.8
		c-1.2,3.9-1.9,7.4,1.3,10.2c2.4-1.5,3.7-2.1,5.5-3.7c1.7-1.5,2.5-2.1,4.1-5.3C161.5,84.6,162.3,78.8,160.3,72.4"/>
	<g>
		<path fill="#0065BD" d="M76.8,143.7c-1.8,0-3.3,1.4-3.3,3.3c0,1.9,1.5,3.3,3.3,3.3c1.8,0,3.3-1.4,3.3-3.3
			C80,145.1,78.6,143.7,76.8,143.7"/>
		<path fill="#0065BD" d="M88,160.3c0-1.3,0.4-2.5,1.1-3.4c0.7-0.8,1.7-1.3,3-1.3c1.5,0,2.5,0.4,3,1.3c0.6,0.9,0.8,2.1,0.8,3.3H88z
			 M101.1,157.5c-0.3-1.1-0.9-2.1-1.6-3c-0.7-0.9-1.7-1.6-2.9-2.1c-1.2-0.5-2.6-0.8-4.3-0.8c-1.3,0-2.6,0.2-3.8,0.6
			c-1.2,0.4-2.3,1.1-3.3,2c-1,0.9-1.8,2-2.3,3.4c-0.6,1.4-0.9,3-0.9,4.8c0,2.3,0.3,4.2,1,5.7c0.7,1.5,1.5,2.7,2.6,3.6
			c1.1,0.9,2.3,1.5,3.7,1.9c1.4,0.4,2.8,0.5,4.2,0.5c1.6,0,2.9-0.2,4.1-0.5c1.2-0.3,2.1-0.8,2.7-1.2c0.8-0.5,1.1-1.1,1.1-1.8
			c0-0.4-0.2-1-0.6-1.7c-0.4-0.7-0.8-1.3-1.1-1.7c-0.3,0.2-0.6,0.5-0.9,0.8c-0.3,0.3-0.7,0.5-1.2,0.8c-0.5,0.2-1,0.4-1.5,0.6
			c-0.6,0.2-1.2,0.2-2,0.2c-2,0-3.4-0.5-4.3-1.6c-0.9-1.1-1.4-2.4-1.5-4.1h13.3c0-0.2,0.1-0.3,0.1-0.6c0-0.2,0-0.5,0-0.8
			c0-0.3,0-0.5,0-0.8v-0.6C101.6,159.8,101.4,158.6,101.1,157.5"/>
		<path fill="#0065BD" d="M79.9,151.9h-2.7c-2.4,0-3.5,1.6-3.5,3.7v18.3h6.1V151.9z"/>
		<path fill="#0065BD" d="M76.8,177.6c-1.8,0-3.3,1.4-3.3,3.3c0,1.9,1.5,3.3,3.3,3.3c1.8,0,3.3-1.4,3.3-3.3
			C80,179,78.6,177.6,76.8,177.6"/>
		<path fill="#0065BD" d="M73.7,189.5v18.3h6.1v-22h-2.7C74.9,185.8,73.7,187.4,73.7,189.5"/>
		<path fill="#0065BD" d="M44.8,156c2.3,0,3.9,2.1,3.9,4.8l0,0.1v5v1.7c-1,1.4-2.6,2.2-4,2.2c-3.4,0-4.6-3.1-4.6-6.8
			C40.1,158.3,42,156,44.8,156 M43.3,174.1c2.2,0,4.2-1.1,5.5-2.4c0.3,1.7,1.3,2.2,3.3,2.2h2.7v-22h-2.8c-1.9,0-2.7,1.1-3.1,2.1l0,0
			c0,0,0,0.1,0,0.1c-1.2-1.5-3.1-2.5-5.5-2.5c-4.7,0-9.5,4-9.5,11.7C34,169,37.2,174.1,43.3,174.1"/>
		<path fill="#0065BD" d="M25.5,202.5c-3.4,0-8.2-2.3-8.2-10.6c0-7.4,3.9-9.9,8-9.9c1.8,0,4.1,0.4,6.5,2l0.9-2.4
			c1.2-2.9-2.2-4.9-7.5-4.9c-8.9,0-14.3,7.2-14.3,15.6c0,8.4,4.1,15.7,14,15.7c2.1,0,3.9-0.2,5.4-0.7c1.6-0.5,2.8-1,3.6-1.6
			l-1.7-4.9C30.4,201.9,27.9,202.5,25.5,202.5"/>
		<path fill="#0065BD" d="M51.4,185.8h-2.7l0,16c-1.4,0.8-3.2,1.2-4.1,1.2c-0.8,0-1.4-0.1-1.8-0.3c-0.4-0.2-0.8-0.5-1-0.9
			c-0.2-0.4-0.3-0.9-0.4-1.5c0-0.6-0.1-1.2-0.1-1.9v-8.9c0-2.1-1.1-3.7-3.5-3.7h-2.7v12.9c0,0.8,0,1.6,0.1,2.4
			c0,0.8,0.1,1.7,0.3,2.3c0.3,1.4,1,2.5,2,3.3c1,0.8,2.6,1.3,4.7,1.3c1.7,0,4.4-0.6,6.4-2.5c0.3,1.8,1.3,2.3,3.3,2.3h2.7v-18.3
			C54.9,187.4,53.7,185.8,51.4,185.8"/>
		<path fill="#0065BD" d="M68.8,151.5c-2.1,0-3.7,1.4-4.7,2.7c-0.4-1.4-1.5-2.3-3.3-2.3h-2.7v22h6.1v-13.3l0,0.1
			c0-5.3,4.5-5.1,6.9-3.4l0.5-2.6C72.2,151.9,69.7,151.5,68.8,151.5"/>
		<path fill="#0065BD" d="M88,194.2c0-1.3,0.4-2.5,1.1-3.4c0.7-0.8,1.7-1.3,3-1.3c1.5,0,2.5,0.4,3,1.3c0.6,0.9,0.8,2.1,0.8,3.3H88z
			 M99.5,188.4c-0.7-0.9-1.7-1.6-2.9-2.1c-1.2-0.5-2.6-0.8-4.3-0.8c-1.3,0-2.6,0.2-3.8,0.6c-1.2,0.4-2.3,1.1-3.3,2
			c-1,0.9-1.8,2-2.3,3.4c-0.6,1.4-0.9,3-0.9,4.8c0,2.3,0.3,4.2,1,5.7c0.7,1.5,1.5,2.7,2.6,3.6c1.1,0.9,2.3,1.5,3.7,1.9
			c1.4,0.4,2.8,0.5,4.2,0.5c1.6,0,2.9-0.2,4.1-0.5c1.2-0.3,2.1-0.8,2.7-1.2c0.8-0.5,1.1-1.1,1.1-1.8c0-0.4-0.2-1-0.6-1.7
			c-0.4-0.7-0.8-1.3-1.1-1.7c-0.3,0.2-0.6,0.5-0.9,0.8c-0.3,0.3-0.7,0.5-1.2,0.8c-0.5,0.2-1,0.4-1.5,0.6c-0.6,0.2-1.2,0.2-2,0.2
			c-2,0-3.4-0.5-4.3-1.6c-0.9-1.1-1.4-2.4-1.5-4.1h13.3c0-0.2,0.1-0.4,0.1-0.6c0-0.2,0-0.5,0-0.8c0-0.3,0-0.5,0-0.8v-0.6
			c0-1.2-0.2-2.4-0.5-3.6C100.7,190.2,100.2,189.2,99.5,188.4"/>
		<path fill="#0065BD" d="M68.8,185.4c-2.1,0-3.7,1.4-4.7,2.7c-0.4-1.4-1.5-2.3-3.3-2.3h-2.7v22h6.1v-13.3l0,0.1
			c0-5.3,4.5-5.1,6.9-3.4l0.5-2.6C72.2,185.7,69.7,185.4,68.8,185.4"/>
		<path fill="#0065BD" d="M16.4,169.2h2l6.4-13.9l1.3,18.6h6l-2.2-30.5h-5.7l-8.1,18.5l-8.1-18.5H2.2L0,173.9h6l1.3-18.6l5.4,11.8
			C13.4,169,14.4,169.2,16.4,169.2"/>
		<path fill="#FFFFFF" d="M103.4,47.6c0.6,2.2,0.3,2.6-0.1,3c-0.2,0.2-0.5,0.3-0.8,0c-0.4,0-0.8-0.3-1.3-0.6
			c-0.2-0.1-0.4-0.4-0.6-0.5l-0.2-0.2c-0.2-0.3-0.9-1.2-1.7-2.1l-0.9-1.3l-1.1-1.5c-1.7-2.3-3.1-4.9-2.9-4.9
			c0.2-0.1,0.9,0.6,1.5,0.6c0.9,0,6.4,3.9,7,5C103.1,46.2,103.4,47.6,103.4,47.6z"/>
		<path fill="#FFFFFF" d="M144.6,33.8c-1.3,0.9-2.4,2.1-3.2,4.4c0,0-0.9,2.9-0.8,4.6c0.1,1.7,3.1,1.6,3.4,1.4
			c0.3-0.1,0.8-0.5,1.4-2.1c0,0,0.7-2,1.3-3.7c0.6-1.6,0.6-2.2,0.7-3.4c0,0,0.1-2-0.3-2.3c-0.4-0.3-0.6-0.1-1.5,0.3L144.6,33.8z"/>
		<path fill="#FFFFFF" d="M144,122.4c-0.1,0.3,0.1,1.3,0.1,1.6c0,0.2-0.2,0.8-0.2,0.8c-0.2,0.6-0.1,1.5-0.4,2.6
			c-0.2,1.1-1.2,2.1-1.6,2.7c-0.3,0.6-0.7,1.7-0.9,1.7c-0.3,0-0.9-0.8-0.6-1.7c0.3-0.8-0.4-3.4-0.4-3.4c-0.4-1.9,0-1.8-0.1-2.6
			c-0.2-1-0.6-2.7-0.9-4.3l-0.1-1c0,0-0.1-0.8,0-1.2c0-0.4,0.1-1.5,1-1.8c0.8-0.3,2.3,1.2,2.8,2.1c0.5,0.8,1.1,2,1.1,3
			C143.9,121.1,144.2,122.1,144,122.4"/>
		<path fill="#FFFFFF" d="M97.7,99.5c2.6,0,2.8,0.5,3.1,1.1c0.1,0.4-0.2,0.7-0.4,1.1c-0.2,0.4-0.7,0.9-1.3,1.4
			c-0.2,0.2-0.6,0.4-0.8,0.5l-0.3,0.2c-0.4,0.2-1.7,0.8-3.1,1.4l-1.8,0.8l-2.1,0.9c-3.3,1.4-6.7,2.6-6.7,2.1c0,0,0.1-0.2,1.2-1.2
			c0.8-0.8,0.2-0.4-0.4-0.5c-0.6-0.1,7.2-6.6,9.2-7.2C96.1,99.5,97.7,99.5,97.7,99.5z"/>
		<path fill="#FFFFFF" d="M161.3,101c0,0,0.2-0.1,0.8-0.2c0.7-0.1,2.3,0.4,2.7,0.6c0.4,0.2,0.9,0.6,1.4,1c0.5,0.4,2.9,2.8,3.5,3.3
			l0.8,1c0.6,0.5,1.1,0.8,0.9,1.1c-0.2,0.2-0.9-0.2-1.7-0.3c-0.8-0.1-2.7-0.7-3.7-0.9c-0.9-0.2-2.9-0.5-3.2-0.5
			c-0.3-0.1-0.2-0.2-0.4-0.3c-0.2-0.1-1.1-0.2-1.5-0.5c-0.4-0.3-2-1.8-2.1-2.3c-0.1-0.5,0.6-0.8,0.6-0.8
			C159.3,101.6,160,101.2,161.3,101"/>
		<path fill="#FFFFFF" d="M154.5,109.9c0,0,0,0.4,0.2,0.8c0.2,0.4,1.5,1.8,1.7,2.2c0.3,0.3,0.8,0.7,1.3,0.9c0.4,0.2,1.2,0.5,1.2,0.5
			c1.2,0.4,1.6,0.3,2.3,0.6l1.2,0.4c0.7,0.3,1.2,0.6,1.4,0.4c0.1-0.2-0.3-0.4-0.7-1c-0.4-0.6-0.9-2.2-1.5-2.7
			c-0.6-1-1.2-1.9-1.5-2.3c-0.2-0.3-0.6-0.5-0.7-0.7c-0.1-0.2,0-0.2-0.4-0.6c-0.4-0.4-3.2-1.7-3.7-1.5c-0.5,0.2-0.4,0.9-0.4,0.9
			C154.2,107.9,154.1,108.6,154.5,109.9"/>
		<path fill="#FFFFFF" d="M101.8,116.1c-0.5,0.1-1.2,0.6-1.6,0.8c-0.5,0.2-1.5,0.1-2.4,0c-0.9-0.1-1.4,0.2-1.5,0
			c-0.1-0.1,0.3-1,0.9-1.2c1.4-0.3,2.2-1.7,2.2-1.7c1.2-1.1,1.2-0.7,1.8-1.2c0.6-0.6,1.7-1.6,2.7-2.5l0.6-0.5c0,0,0.5-0.4,0.8-0.5
			c0.3-0.1,1.1-0.2,1.3-0.1c0.7,0.4,0.2,2.3-0.2,3c-0.4,0.7-1.1,1.6-1.7,2C103.7,115.2,101.8,116.1,101.8,116.1z"/>
		<path fill="#FFFFFF" d="M170.6,73c-0.9,0.2-2.2,0.5-3.1,0.4c-1-0.1-3.3-0.3-3.3-1.4c0-1.1,2.9-2.2,2.9-2.2c1.5-0.4,3.1-0.8,4.1-1
			c0.7-0.2,0.4-0.5,2.3-1c0,0,2.3-0.5,3.1-1.1c0.8-0.6,1.7-0.3,1.7-0.2c0,0.2-0.4,0.5-0.9,1.4c-0.2,0.3-0.7,1.7-1.4,2.3
			c-0.7,0.6-2,1-2.4,1.4C173.6,71.6,171.7,72.7,170.6,73z"/>
		<path fill="#FFFFFF" d="M169.3,57.5c0,0-0.2,1.1-0.7,1.4l-0.2,0.2c-1.1,0.9-2.2,1.7-3,2.4c-0.8,0.6-3.3,1.8-3.9,1.7
			c-1.5-0.3-1.3-1.7-1-2.6c0.3-0.9,1.8-2,1.8-2C163.6,57.4,169.3,56.7,169.3,57.5z"/>
		<path fill="#FFFFFF" d="M128.2,122.1c0.1,0.3-0.2,0.9-0.2,1.3c0,0.3,0.2,0.6,0.3,1c0.1,0.4,0,1.3,0.1,1.7c0.1,0.5,1,1.7,1.2,2.1
			c0.2,0.4,0.4,1.3,0.7,1.3c0.3,0.1,0.6-0.6,0.5-1.6c-0.1-1,0.2-1.9,0.5-2.5c0.3-0.6,0.1-1.4,0.2-2.1c0.2-0.8,0.6-2.2,0.9-3.5
			l0.1-0.8c0,0,0.2-0.5,0.1-1c-0.1-0.5-0.3-1-0.5-1.2c-0.2-0.2-0.5-0.1-0.5-0.1c-0.8,0.3-1.6,1-2.1,1.7c-0.4,0.6-1,1.7-1,2.5
			C128.4,121.1,128.1,121.9,128.2,122.1"/>
		<path fill="#FFFFFF" d="M93.7,55.5c1.8,0.3,2.1,0,2.5-0.4c0.2-0.3,0.1-0.4,0-0.8c-0.1-0.4-0.3-0.8-0.5-1.1
			c-0.1-0.2-0.3-0.3-0.4-0.5l-0.2-0.1c-0.3-0.2-1-0.7-1.8-1.4l-1.1-0.8l-1.3-0.9c-1.9-1.4-4.1-2.5-4.2-2.2c0,0.1,0,0.1,0.3,0.7
			c0.3,0.7,0,0.4-0.2,0.6c-0.2,0.2,3.8,5.8,4.7,6.3C92.4,55.4,93.7,55.5,93.7,55.5z"/>
		<path fill="#FFFFFF" d="M133.4,32.4c0.4-0.3,0.7,0.9,1.1,1.3l0.2,0.2c0.2,0.2,0.5,0.5,0.4,0.9c0,0,0.2,2.3,0.3,3.3
			c0.4,2.9,0.1,3.9,0.1,4c-0.1,0.3-0.3,0.7-0.4,0.8c-0.3,0.3-3.2,0.1-3.5-2.2c-0.2-1-0.1-3.4-0.1-3.4c0.2-2.2,1-4,1.6-4.4
			L133.4,32.4z"/>
	</g>
</g>
<g>
	<g>
		<path fill="#0065BD" d="M249.5,81c-0.1,0.1-0.3,0.3-0.7,0.5c-0.3,0.2-0.7,0.4-1.2,0.6c-0.5,0.2-1.1,0.4-1.8,0.5
			c-0.7,0.1-1.5,0.2-2.4,0.2c-1.8,0-3.3-0.3-4.6-0.8c-1.3-0.6-2.3-1.3-3.2-2.4c-0.8-1-1.4-2.2-1.8-3.6c-0.4-1.4-0.6-2.9-0.6-4.5
			c0-1.6,0.2-3.2,0.6-4.6c0.4-1.4,1.1-2.6,1.9-3.6c0.8-1,1.9-1.8,3.2-2.4c1.3-0.6,2.8-0.9,4.5-0.9c0.8,0,1.6,0.1,2.3,0.2
			c0.7,0.2,1.3,0.3,1.8,0.5c0.5,0.2,0.9,0.4,1.3,0.7c0.3,0.2,0.6,0.4,0.8,0.6c0.2,0.2,0.4,0.4,0.5,0.6c0.1,0.2,0.2,0.5,0.2,0.8
			c0,0.4-0.2,0.9-0.5,1.3c-0.3,0.4-0.7,0.8-1.1,1.2c-0.3-0.3-0.6-0.5-0.9-0.8c-0.3-0.3-0.7-0.5-1.1-0.7c-0.4-0.2-0.9-0.4-1.4-0.5
			c-0.5-0.1-1.1-0.2-1.7-0.2c-1.1,0-2,0.2-2.8,0.7c-0.7,0.4-1.3,1-1.8,1.7c-0.5,0.7-0.8,1.5-1,2.5c-0.2,0.9-0.3,1.9-0.3,2.8
			c0,1,0.1,2,0.3,2.9c0.2,0.9,0.5,1.8,1,2.5c0.5,0.7,1.1,1.3,1.9,1.7c0.8,0.4,1.7,0.6,2.9,0.6c0.6,0,1.2-0.1,1.7-0.2
			c0.5-0.2,1-0.3,1.3-0.6c0.4-0.2,0.7-0.4,1-0.7c0.3-0.2,0.5-0.4,0.7-0.6c0.1,0.2,0.3,0.3,0.5,0.6c0.2,0.2,0.3,0.4,0.5,0.7
			c0.2,0.2,0.3,0.5,0.4,0.7c0.1,0.2,0.2,0.5,0.2,0.7c0,0.3-0.1,0.5-0.2,0.7C250,80.5,249.8,80.8,249.5,81z"/>
		<path fill="#0065BD" d="M266.2,78.5c0,1.7,0.2,3,0.7,3.7c-0.4,0.2-0.8,0.3-1.1,0.3c-0.3,0.1-0.7,0.1-1.1,0.1
			c-0.8,0-1.4-0.2-1.8-0.5c-0.4-0.3-0.7-0.7-0.8-1.3c-0.5,0.5-1.1,0.9-1.9,1.3c-0.8,0.3-1.7,0.5-2.9,0.5c-0.6,0-1.2-0.1-1.8-0.2
			c-0.6-0.2-1.1-0.4-1.6-0.8c-0.5-0.4-0.9-0.9-1.2-1.5c-0.3-0.6-0.5-1.4-0.5-2.3c0-1.1,0.3-2,0.8-2.7c0.5-0.7,1.2-1.2,2-1.6
			c0.8-0.4,1.7-0.7,2.6-0.8c0.9-0.2,1.8-0.2,2.6-0.3c0.3,0,0.5,0,0.8,0s0.5,0,0.7,0v-0.6c0-0.8-0.2-1.4-0.7-1.8
			c-0.4-0.3-1.2-0.5-2.2-0.5c-0.9,0-1.8,0.2-2.5,0.5c-0.7,0.3-1.4,0.6-2.1,1c-0.3-0.4-0.5-0.8-0.7-1.2c-0.2-0.4-0.3-0.8-0.3-1
			c0-0.3,0.2-0.6,0.5-0.9c0.3-0.3,0.8-0.5,1.4-0.8c0.6-0.2,1.3-0.4,2-0.6c0.8-0.1,1.6-0.2,2.4-0.2c1.2,0,2.2,0.1,3,0.4
			c0.8,0.2,1.5,0.6,2,1.1c0.5,0.5,0.9,1.1,1.1,1.9c0.2,0.7,0.3,1.6,0.3,2.6V78.5z M262.1,74.7c-0.2,0-0.3,0-0.5,0
			c-0.2,0-0.3,0-0.5,0c-0.5,0-1.1,0.1-1.6,0.2c-0.5,0.1-1,0.2-1.4,0.5c-0.4,0.2-0.7,0.5-1,0.8c-0.3,0.3-0.4,0.8-0.4,1.3
			c0,0.6,0.2,1.1,0.5,1.5c0.3,0.4,0.9,0.6,1.8,0.6c0.4,0,0.8-0.1,1.2-0.2c0.4-0.1,0.7-0.3,1-0.4c0.3-0.2,0.5-0.4,0.7-0.6
			c0.2-0.2,0.2-0.4,0.2-0.6V74.7z"/>
		<path fill="#0065BD" d="M274.6,68.4c0.1-0.2,0.3-0.4,0.5-0.6c0.2-0.2,0.5-0.5,0.8-0.6c0.3-0.2,0.7-0.4,1-0.5
			c0.4-0.1,0.8-0.2,1.2-0.2c0.3,0,0.5,0,0.8,0.1c0.3,0,0.6,0.1,0.8,0.2s0.4,0.3,0.6,0.5c0.2,0.2,0.2,0.5,0.2,0.8
			c0,0.5-0.1,1-0.4,1.6c-0.2,0.6-0.5,1.1-0.7,1.6c-0.4-0.3-0.7-0.5-1.1-0.7c-0.4-0.2-0.8-0.2-1.3-0.2c-0.7,0-1.2,0.2-1.7,0.6
			c-0.5,0.4-0.7,0.9-0.7,1.4v10h-4.4V66.8c0.1,0,0.2,0,0.4-0.1c0.1,0,0.3,0,0.5,0c0.2,0,0.4,0,0.6,0c0.7,0,1.3,0.1,1.8,0.4
			C274.2,67.4,274.5,67.8,274.6,68.4z"/>
		<path fill="#0065BD" d="M290.2,79.5c0.5,0,1-0.1,1.4-0.2c0.4-0.1,0.8-0.3,1.1-0.4c0.3-0.2,0.6-0.4,0.8-0.6
			c0.2-0.2,0.5-0.4,0.7-0.6c0.3,0.3,0.5,0.7,0.8,1.3c0.3,0.5,0.4,0.9,0.4,1.3c0,0.5-0.3,0.9-0.8,1.3c-0.5,0.3-1.1,0.6-1.9,0.9
			c-0.8,0.3-1.8,0.4-2.9,0.4c-1,0-2-0.1-3-0.4c-1-0.3-1.9-0.7-2.6-1.4c-0.8-0.6-1.4-1.5-1.9-2.6c-0.5-1.1-0.7-2.5-0.7-4.1
			c0-1.4,0.2-2.5,0.6-3.5c0.4-1,1-1.8,1.7-2.5c0.7-0.6,1.5-1.1,2.4-1.4c0.9-0.3,1.8-0.5,2.7-0.5c1.2,0,2.2,0.2,3.1,0.6
			c0.8,0.4,1.5,0.9,2.1,1.5c0.5,0.6,0.9,1.4,1.2,2.2c0.2,0.8,0.4,1.7,0.4,2.6c0,0.1,0,0.3,0,0.5c0,0.2,0,0.4,0,0.6
			c0,0.2,0,0.4,0,0.6c0,0.2,0,0.3,0,0.4H286c0.1,1.2,0.5,2.2,1.1,3C287.8,79.1,288.8,79.5,290.2,79.5z M291.7,72.9
			c0-1-0.2-1.9-0.6-2.5c-0.4-0.6-1.1-1-2.2-1c-0.9,0-1.6,0.3-2.1,0.9c-0.5,0.6-0.8,1.5-0.8,2.6H291.7z"/>
		<path fill="#0065BD" d="M319.1,78.5c0,1.7,0.2,3,0.7,3.7c-0.4,0.2-0.8,0.3-1.1,0.3c-0.3,0.1-0.7,0.1-1.1,0.1
			c-0.8,0-1.4-0.2-1.8-0.5c-0.4-0.3-0.7-0.7-0.8-1.3c-0.5,0.5-1.1,0.9-1.9,1.3c-0.8,0.3-1.7,0.5-2.9,0.5c-0.6,0-1.2-0.1-1.8-0.2
			c-0.6-0.2-1.1-0.4-1.6-0.8c-0.5-0.4-0.9-0.9-1.2-1.5c-0.3-0.6-0.5-1.4-0.5-2.3c0-1.1,0.3-2,0.8-2.7c0.5-0.7,1.2-1.2,2-1.6
			c0.8-0.4,1.7-0.7,2.6-0.8c0.9-0.2,1.8-0.2,2.6-0.3c0.3,0,0.5,0,0.8,0c0.2,0,0.5,0,0.7,0v-0.6c0-0.8-0.2-1.4-0.7-1.8
			c-0.4-0.3-1.2-0.5-2.2-0.5c-0.9,0-1.8,0.2-2.5,0.5c-0.7,0.3-1.4,0.6-2.1,1c-0.3-0.4-0.5-0.8-0.7-1.2c-0.2-0.4-0.3-0.8-0.3-1
			c0-0.3,0.2-0.6,0.5-0.9c0.3-0.3,0.8-0.5,1.4-0.8c0.6-0.2,1.3-0.4,2-0.6c0.8-0.1,1.6-0.2,2.4-0.2c1.2,0,2.2,0.1,3,0.4
			c0.8,0.2,1.5,0.6,2,1.1c0.5,0.5,0.9,1.1,1.1,1.9c0.2,0.7,0.3,1.6,0.3,2.6V78.5z M314.9,74.7c-0.2,0-0.3,0-0.5,0
			c-0.2,0-0.3,0-0.5,0c-0.5,0-1.1,0.1-1.6,0.2c-0.5,0.1-1,0.2-1.4,0.5c-0.4,0.2-0.7,0.5-1,0.8c-0.3,0.3-0.4,0.8-0.4,1.3
			c0,0.6,0.2,1.1,0.5,1.5c0.3,0.4,0.9,0.6,1.8,0.6c0.4,0,0.8-0.1,1.2-0.2c0.4-0.1,0.7-0.3,1-0.4c0.3-0.2,0.5-0.4,0.7-0.6
			c0.2-0.2,0.2-0.4,0.2-0.6V74.7z"/>
		<path fill="#0065BD" d="M327.7,82.2h-4.4V66.8c0.1,0,0.2,0,0.4-0.1c0.1,0,0.3,0,0.5,0c0.2,0,0.4,0,0.6,0c0.7,0,1.3,0.1,1.8,0.4
			c0.5,0.2,0.8,0.7,1,1.3c0.4-0.5,0.9-1,1.7-1.4c0.8-0.4,1.8-0.6,3.1-0.6c1.5,0,2.7,0.3,3.4,0.9c0.7,0.6,1.2,1.4,1.4,2.4
			c0.1,0.5,0.2,1,0.2,1.6c0,0.6,0.1,1.2,0.1,1.7v9.2H333v-9c0-0.5,0-0.9,0-1.3c0-0.4-0.1-0.8-0.3-1.1c-0.1-0.3-0.4-0.5-0.7-0.7
			c-0.3-0.2-0.8-0.2-1.3-0.2c-0.8,0-1.5,0.2-2.1,0.5c-0.6,0.3-0.9,0.8-0.9,1.3V82.2z"/>
		<path fill="#0065BD" d="M352.7,82.2c-0.4,0-0.7-0.1-0.9-0.4c-0.2-0.3-0.3-0.6-0.3-1c-0.3,0.4-0.8,0.7-1.5,1.1
			c-0.7,0.4-1.7,0.6-2.8,0.6c-0.8,0-1.6-0.1-2.3-0.4c-0.7-0.3-1.4-0.7-2-1.3c-0.6-0.6-1.1-1.4-1.4-2.4c-0.3-1-0.5-2.3-0.5-3.8
			c0-1.5,0.2-2.8,0.5-3.8c0.4-1.1,0.8-1.9,1.4-2.6c0.6-0.7,1.3-1.1,2-1.5c0.8-0.3,1.6-0.5,2.4-0.5c1,0,1.8,0.2,2.4,0.5
			c0.6,0.3,1.1,0.7,1.4,1v-8.6c0,0,0.2,0,0.5-0.1c0.3,0,0.7,0,1,0c0.3,0,0.7,0,1.1,0.1c0.4,0.1,0.7,0.2,0.9,0.4
			c0.3,0.2,0.5,0.5,0.7,0.8c0.2,0.3,0.3,0.8,0.3,1.3v20.5H352.7z M345.5,74.5c0,0.8,0.1,1.4,0.2,2.1c0.1,0.6,0.3,1.1,0.6,1.6
			c0.3,0.4,0.6,0.8,1,1c0.4,0.2,1,0.4,1.7,0.4c0.6,0,1.2-0.1,1.6-0.4c0.4-0.3,0.7-0.6,0.7-1.1v-7.3c-0.2-0.2-0.5-0.4-0.9-0.6
			c-0.4-0.2-0.9-0.4-1.5-0.4c-1.1,0-2,0.4-2.5,1.2C345.7,71.8,345.5,73,345.5,74.5z"/>
		<path fill="#0065BD" d="M377.9,68.6c0,0.3-0.1,0.7-0.3,1.2c-0.2,0.4-0.4,0.9-0.7,1.3c-0.2-0.2-0.5-0.4-0.8-0.5
			c-0.3-0.2-0.7-0.4-1.1-0.5c-0.4-0.2-0.8-0.3-1.2-0.4c-0.4-0.1-0.8-0.2-1.3-0.2c-0.2,0-0.5,0-0.7,0c-0.3,0-0.5,0.1-0.7,0.2
			c-0.2,0.1-0.4,0.2-0.5,0.4c-0.1,0.2-0.2,0.4-0.2,0.7c0,0.7,0.8,1.3,2.4,1.6c0.6,0.1,1.3,0.3,1.9,0.5c0.6,0.2,1.2,0.5,1.7,0.9
			c0.5,0.4,0.9,0.8,1.2,1.4c0.3,0.6,0.5,1.3,0.5,2.1c0,0.9-0.2,1.6-0.5,2.3c-0.3,0.7-0.8,1.2-1.4,1.7c-0.6,0.5-1.3,0.8-2.1,1
			c-0.8,0.2-1.7,0.4-2.6,0.4c-1,0-1.8-0.1-2.4-0.2s-1.2-0.3-1.6-0.5c-0.3-0.1-0.6-0.3-1-0.6c-0.4-0.2-0.5-0.6-0.5-1
			c0-0.4,0.1-0.8,0.3-1.2c0.2-0.4,0.5-0.8,0.7-1.3c0.2,0.2,0.4,0.4,0.7,0.5c0.3,0.2,0.6,0.4,1,0.5c0.4,0.2,0.8,0.3,1.2,0.4
			c0.4,0.1,0.9,0.2,1.3,0.2c0.3,0,0.6,0,0.9-0.1c0.3,0,0.6-0.1,0.8-0.3c0.2-0.1,0.4-0.3,0.6-0.5c0.2-0.2,0.2-0.5,0.2-0.8
			c0-0.6-0.2-1.1-0.7-1.3c-0.5-0.3-1.2-0.5-2.2-0.7c-0.6-0.1-1.2-0.3-1.8-0.5c-0.6-0.2-1.1-0.5-1.6-0.9c-0.5-0.4-0.8-0.8-1.1-1.3
			c-0.3-0.5-0.4-1.2-0.4-2c0-0.8,0.2-1.5,0.5-2c0.3-0.6,0.8-1.1,1.4-1.5c0.6-0.4,1.2-0.7,2-0.9c0.8-0.2,1.5-0.3,2.4-0.3
			c0.9,0,1.6,0.1,2.3,0.2c0.7,0.1,1.3,0.3,1.8,0.5C377.4,67.5,377.9,68,377.9,68.6z"/>
		<path fill="#0065BD" d="M390.5,66.8c0,0,0.2,0,0.5,0c0.3,0,0.6,0,0.9,0c0.4,0,0.7,0,1.1,0.1c0.4,0.1,0.7,0.2,0.9,0.4
			c0.3,0.2,0.5,0.5,0.7,0.8c0.2,0.3,0.3,0.8,0.3,1.3v12.9h-3c-0.5,0-0.9-0.1-1-0.4c-0.1-0.3-0.2-0.7-0.2-1.3c-0.4,0.5-0.9,1-1.7,1.4
			c-0.8,0.4-1.8,0.6-3.1,0.6c-1.5,0-2.7-0.3-3.4-0.9c-0.7-0.6-1.2-1.4-1.4-2.4c-0.1-0.5-0.2-1-0.2-1.6c0-0.6,0-1.2,0-1.7v-9
			c0.2,0,0.3,0,0.5,0c0.2,0,0.3,0,0.5,0c0.2,0,0.3,0,0.5,0c0.9,0,1.6,0.2,2.1,0.6c0.6,0.4,0.8,1,0.8,2v6.4c0,0.5,0,0.9,0,1.3
			c0,0.4,0.1,0.8,0.3,1.1c0.1,0.3,0.4,0.5,0.7,0.7c0.3,0.2,0.8,0.2,1.3,0.2c0.8,0,1.5-0.2,2.1-0.5c0.6-0.3,0.9-0.8,0.9-1.3V66.8z"/>
		<path fill="#0065BD" d="M403.4,68.3c0.3-0.4,0.9-0.8,1.6-1.3c0.7-0.4,1.7-0.6,2.8-0.6c0.8,0,1.6,0.1,2.3,0.4
			c0.7,0.3,1.4,0.7,1.9,1.3c0.6,0.6,1,1.4,1.3,2.4c0.3,1,0.5,2.2,0.5,3.7c0,1.7-0.2,3.1-0.6,4.2c-0.4,1.1-0.9,2-1.5,2.6
			c-0.6,0.6-1.3,1.1-2.1,1.3c-0.8,0.3-1.5,0.4-2.3,0.4c-0.6,0-1.2-0.1-1.6-0.2c-0.5-0.1-0.9-0.3-1.2-0.5c-0.3-0.2-0.6-0.3-0.7-0.5
			c-0.2-0.2-0.3-0.3-0.3-0.4v8.2h-4.4V66.8c0.1,0,0.2,0,0.4-0.1c0.1,0,0.3,0,0.5,0c0.2,0,0.4,0,0.6,0c0.7,0,1.3,0.1,1.8,0.4
			C402.9,67.3,403.3,67.7,403.4,68.3z M409.2,74.3c0-0.7-0.1-1.3-0.2-1.8c-0.1-0.6-0.3-1.1-0.5-1.5c-0.2-0.4-0.6-0.7-1-1
			c-0.4-0.2-0.9-0.3-1.5-0.3c-0.9,0-1.5,0.2-1.9,0.5c-0.4,0.3-0.5,0.7-0.5,1.1v6.9c0.2,0.2,0.5,0.4,0.9,0.6c0.4,0.2,1,0.4,1.5,0.4
			c1.1,0,1.9-0.4,2.4-1.3C409,77.1,409.2,75.9,409.2,74.3z"/>
		<path fill="#0065BD" d="M421.6,68.3c0.3-0.4,0.9-0.8,1.6-1.3c0.7-0.4,1.7-0.6,2.8-0.6c0.8,0,1.6,0.1,2.3,0.4
			c0.7,0.3,1.4,0.7,1.9,1.3c0.6,0.6,1,1.4,1.3,2.4c0.3,1,0.5,2.2,0.5,3.7c0,1.7-0.2,3.1-0.6,4.2c-0.4,1.1-0.9,2-1.5,2.6
			c-0.6,0.6-1.3,1.1-2.1,1.3c-0.8,0.3-1.5,0.4-2.3,0.4c-0.6,0-1.2-0.1-1.6-0.2c-0.5-0.1-0.9-0.3-1.2-0.5c-0.3-0.2-0.6-0.3-0.7-0.5
			c-0.2-0.2-0.3-0.3-0.3-0.4v8.2h-4.4V66.8c0.1,0,0.2,0,0.4-0.1c0.1,0,0.3,0,0.5,0c0.2,0,0.4,0,0.6,0c0.7,0,1.3,0.1,1.8,0.4
			C421.2,67.3,421.5,67.7,421.6,68.3z M427.5,74.3c0-0.7-0.1-1.3-0.2-1.8c-0.1-0.6-0.3-1.1-0.5-1.5c-0.2-0.4-0.6-0.7-1-1
			c-0.4-0.2-0.9-0.3-1.5-0.3c-0.9,0-1.5,0.2-1.9,0.5c-0.4,0.3-0.5,0.7-0.5,1.1v6.9c0.2,0.2,0.5,0.4,0.9,0.6c0.4,0.2,1,0.4,1.5,0.4
			c1.1,0,1.9-0.4,2.4-1.3C427.2,77.1,427.5,75.9,427.5,74.3z"/>
		<path fill="#0065BD" d="M450.3,74.5c0,1.1-0.1,2.1-0.4,3.1c-0.3,1-0.7,1.9-1.3,2.6c-0.6,0.8-1.4,1.4-2.4,1.8
			c-1,0.5-2.2,0.7-3.5,0.7c-1.4,0-2.6-0.2-3.5-0.7c-1-0.4-1.8-1-2.4-1.8c-0.6-0.7-1.1-1.6-1.3-2.6c-0.3-1-0.4-2-0.4-3.1
			c0-1.1,0.2-2.2,0.5-3.1c0.3-1,0.8-1.9,1.4-2.6c0.6-0.7,1.4-1.3,2.4-1.8c1-0.4,2.1-0.6,3.4-0.6c1.4,0,2.5,0.2,3.5,0.6
			c1,0.4,1.7,1,2.3,1.8c0.6,0.7,1,1.6,1.3,2.6C450.1,72.3,450.3,73.4,450.3,74.5z M445.9,74.5c0-0.6,0-1.2-0.1-1.7
			c-0.1-0.6-0.3-1.1-0.5-1.5c-0.2-0.4-0.6-0.8-1-1.1c-0.4-0.3-0.9-0.4-1.6-0.4c-0.6,0-1.2,0.1-1.6,0.4c-0.4,0.3-0.8,0.6-1,1.1
			c-0.3,0.4-0.4,0.9-0.5,1.5s-0.2,1.1-0.2,1.7c0,0.6,0.1,1.2,0.1,1.8c0.1,0.6,0.3,1.1,0.5,1.6c0.2,0.5,0.6,0.8,1,1.1
			c0.4,0.3,1,0.4,1.6,0.4c0.7,0,1.2-0.1,1.6-0.4c0.4-0.3,0.8-0.7,1-1.1c0.2-0.5,0.4-1,0.5-1.6C445.8,75.7,445.9,75.1,445.9,74.5z"/>
		<path fill="#0065BD" d="M458,68.4c0.1-0.2,0.3-0.4,0.5-0.6c0.2-0.2,0.5-0.5,0.8-0.6c0.3-0.2,0.7-0.4,1-0.5
			c0.4-0.1,0.8-0.2,1.2-0.2c0.3,0,0.5,0,0.8,0.1c0.3,0,0.6,0.1,0.8,0.2c0.3,0.1,0.4,0.3,0.6,0.5c0.2,0.2,0.2,0.5,0.2,0.8
			c0,0.5-0.1,1-0.4,1.6c-0.2,0.6-0.5,1.1-0.7,1.6c-0.4-0.3-0.7-0.5-1.1-0.7c-0.4-0.2-0.8-0.2-1.3-0.2c-0.7,0-1.2,0.2-1.7,0.6
			c-0.5,0.4-0.7,0.9-0.7,1.4v10h-4.4V66.8c0.1,0,0.2,0,0.4-0.1c0.1,0,0.3,0,0.5,0c0.2,0,0.4,0,0.6,0c0.7,0,1.3,0.1,1.8,0.4
			C457.6,67.4,457.9,67.8,458,68.4z"/>
		<path fill="#0065BD" d="M466.4,79.9c-0.2-0.4-0.2-0.9-0.3-1.4c0-0.5-0.1-1-0.1-1.4V62c0.2,0,0.3,0,0.5-0.1c0.2,0,0.3,0,0.5,0
			c0.2,0,0.3,0,0.5,0c0.3,0,0.7,0,1,0.1c0.3,0.1,0.7,0.2,0.9,0.4c0.3,0.2,0.5,0.5,0.7,0.8c0.2,0.3,0.3,0.8,0.3,1.3v2.3h4.6v3.3h-4.6
			V77c0,1.5,0.6,2.3,1.9,2.3c0.3,0,0.6-0.1,0.9-0.1c0.3-0.1,0.5-0.2,0.7-0.3c0.2-0.1,0.4-0.2,0.6-0.4c0.2-0.1,0.3-0.2,0.3-0.3
			c0.3,0.5,0.6,0.9,0.7,1.2c0.2,0.3,0.3,0.7,0.3,1c0,0.3-0.1,0.6-0.3,0.8c-0.2,0.3-0.5,0.5-1,0.8c-0.4,0.2-0.9,0.4-1.5,0.6
			c-0.6,0.1-1.2,0.2-1.9,0.2c-1.3,0-2.4-0.3-3.1-0.8C467.2,81.4,466.7,80.7,466.4,79.9z"/>
	</g>
	<g>
		<path fill="#0065BD" d="M233.7,114.4c-0.2-0.4-0.2-0.9-0.3-1.4c0-0.5-0.1-1-0.1-1.4V96.6c0.2,0,0.3,0,0.5-0.1c0.2,0,0.3,0,0.5,0
			c0.2,0,0.3,0,0.5,0c0.3,0,0.7,0,1,0.1c0.3,0.1,0.7,0.2,0.9,0.4c0.3,0.2,0.5,0.5,0.7,0.8c0.2,0.3,0.3,0.8,0.3,1.3v2.3h4.6v3.3h-4.6
			v6.9c0,1.5,0.6,2.3,1.9,2.3c0.3,0,0.6-0.1,0.9-0.1c0.3-0.1,0.5-0.2,0.7-0.3c0.2-0.1,0.4-0.2,0.6-0.4c0.2-0.1,0.3-0.2,0.3-0.3
			c0.3,0.5,0.6,0.9,0.7,1.2c0.2,0.3,0.3,0.7,0.3,1c0,0.3-0.1,0.6-0.3,0.8c-0.2,0.3-0.5,0.5-1,0.8c-0.4,0.2-0.9,0.4-1.5,0.6
			c-0.6,0.1-1.2,0.2-1.9,0.2c-1.3,0-2.4-0.3-3.1-0.8C234.5,116,234,115.3,233.7,114.4z"/>
		<path fill="#0065BD" d="M255.4,107.8c0-0.5,0-0.9-0.1-1.3c0-0.4-0.1-0.8-0.3-1.1c-0.1-0.3-0.4-0.5-0.7-0.7
			c-0.3-0.2-0.8-0.2-1.3-0.2c-0.8,0-1.5,0.2-2.1,0.5c-0.6,0.3-0.9,0.8-0.9,1.3v10.5h-4.4V93.9c0,0,0.2,0,0.5-0.1c0.3,0,0.7,0,1,0
			c0.3,0,0.7,0,1,0.1c0.3,0.1,0.7,0.2,0.9,0.4c0.3,0.2,0.5,0.4,0.7,0.8c0.2,0.3,0.3,0.8,0.3,1.3v6.5c0.2-0.2,0.4-0.4,0.7-0.6
			c0.3-0.2,0.6-0.4,0.9-0.6c0.4-0.2,0.8-0.3,1.3-0.4c0.5-0.1,1-0.2,1.7-0.2c1.5,0,2.7,0.3,3.4,0.9c0.7,0.6,1.2,1.4,1.4,2.4
			c0.1,0.5,0.2,1,0.2,1.6c0,0.6,0,1.2,0,1.7v9.2h-4.4V107.8z"/>
		<path fill="#0065BD" d="M268.2,102.9c0.1-0.2,0.3-0.4,0.5-0.6c0.2-0.2,0.5-0.5,0.8-0.6c0.3-0.2,0.7-0.4,1-0.5
			c0.4-0.1,0.8-0.2,1.2-0.2c0.3,0,0.5,0,0.8,0.1c0.3,0,0.6,0.1,0.8,0.2c0.3,0.1,0.4,0.3,0.6,0.5c0.2,0.2,0.2,0.5,0.2,0.8
			c0,0.5-0.1,1-0.4,1.6c-0.2,0.6-0.5,1.1-0.7,1.6c-0.4-0.3-0.7-0.5-1.1-0.7c-0.4-0.2-0.8-0.2-1.3-0.2c-0.7,0-1.2,0.2-1.7,0.6
			c-0.5,0.4-0.7,0.9-0.7,1.4v10H264v-15.4c0.1,0,0.2,0,0.4-0.1c0.1,0,0.3,0,0.5,0c0.2,0,0.4,0,0.6,0c0.7,0,1.3,0.1,1.8,0.4
			C267.7,101.9,268,102.4,268.2,102.9z"/>
		<path fill="#0065BD" d="M290.5,109c0,1.1-0.1,2.1-0.4,3.1c-0.3,1-0.7,1.9-1.3,2.6c-0.6,0.8-1.4,1.4-2.4,1.8
			c-1,0.5-2.2,0.7-3.5,0.7s-2.6-0.2-3.5-0.7c-1-0.4-1.7-1-2.4-1.8c-0.6-0.7-1.1-1.6-1.3-2.6c-0.3-1-0.4-2-0.4-3.1
			c0-1.1,0.2-2.2,0.5-3.1c0.3-1,0.8-1.9,1.4-2.6c0.6-0.7,1.4-1.3,2.4-1.8c1-0.4,2.1-0.6,3.4-0.6c1.4,0,2.5,0.2,3.5,0.6
			c1,0.4,1.7,1,2.3,1.8c0.6,0.7,1,1.6,1.3,2.6C290.4,106.9,290.5,107.9,290.5,109z M286.1,109c0-0.6,0-1.2-0.1-1.7
			c-0.1-0.6-0.3-1.1-0.5-1.5c-0.2-0.4-0.6-0.8-1-1.1c-0.4-0.3-0.9-0.4-1.6-0.4c-0.6,0-1.2,0.1-1.6,0.4c-0.4,0.3-0.8,0.6-1,1.1
			c-0.3,0.4-0.4,0.9-0.5,1.5s-0.2,1.1-0.2,1.7c0,0.6,0,1.2,0.1,1.8c0.1,0.6,0.3,1.1,0.5,1.6c0.2,0.5,0.6,0.8,1,1.1
			c0.4,0.3,1,0.4,1.6,0.4c0.7,0,1.2-0.1,1.6-0.4c0.4-0.3,0.8-0.7,1-1.1c0.2-0.5,0.4-1,0.5-1.6C286,110.2,286.1,109.7,286.1,109z"/>
		<path fill="#0065BD" d="M303.7,101.4c0,0,0.2,0,0.5,0c0.3,0,0.6,0,0.9,0c0.4,0,0.7,0,1.1,0.1c0.4,0.1,0.7,0.2,0.9,0.4
			c0.3,0.2,0.5,0.5,0.7,0.8c0.2,0.3,0.3,0.8,0.3,1.3v12.9h-3c-0.5,0-0.9-0.1-1-0.4c-0.1-0.3-0.2-0.7-0.2-1.3c-0.4,0.5-0.9,1-1.7,1.4
			c-0.8,0.4-1.8,0.6-3.1,0.6c-1.5,0-2.7-0.3-3.4-0.9c-0.7-0.6-1.2-1.4-1.4-2.4c-0.1-0.5-0.2-1-0.2-1.6c0-0.6,0-1.2,0-1.7v-9
			c0.2,0,0.3,0,0.5,0c0.2,0,0.3,0,0.5,0c0.2,0,0.3,0,0.5,0c0.9,0,1.6,0.2,2.1,0.6c0.6,0.4,0.8,1,0.8,2v6.4c0,0.5,0,0.9,0,1.3
			c0,0.4,0.1,0.8,0.3,1.1c0.1,0.3,0.4,0.5,0.7,0.7c0.3,0.2,0.8,0.2,1.3,0.2c0.8,0,1.5-0.2,2.1-0.5c0.6-0.3,0.9-0.8,0.9-1.3V101.4z"
			/>
		<path fill="#0065BD" d="M326.1,115.6c0,1.3-0.1,2.4-0.4,3.5c-0.2,1.1-0.7,2-1.3,2.7c-0.6,0.8-1.4,1.3-2.5,1.8
			c-1,0.4-2.3,0.6-3.8,0.6c-1.3,0-2.4-0.1-3.2-0.3c-0.8-0.2-1.5-0.4-2-0.7c-0.4-0.2-0.7-0.5-0.8-0.7c-0.1-0.3-0.2-0.5-0.2-0.7
			c0-0.3,0.1-0.8,0.4-1.2c0.3-0.5,0.6-0.9,0.8-1.3c0.2,0.2,0.4,0.3,0.6,0.5c0.3,0.2,0.6,0.4,1,0.6c0.4,0.2,0.8,0.3,1.3,0.5
			c0.5,0.1,1,0.2,1.6,0.2c0.8,0,1.5-0.1,2.1-0.3c0.5-0.2,0.9-0.6,1.3-1c0.3-0.4,0.5-0.9,0.6-1.5c0.1-0.6,0.2-1.3,0.2-2.1v-0.6
			c-0.3,0.4-0.8,0.7-1.5,1c-0.7,0.3-1.5,0.5-2.5,0.5c-0.8,0-1.6-0.1-2.3-0.4c-0.7-0.2-1.4-0.7-2-1.3c-0.6-0.6-1.1-1.4-1.4-2.4
			c-0.3-1-0.5-2.2-0.5-3.7c0-1.5,0.2-2.8,0.5-3.8c0.4-1,0.8-1.9,1.4-2.6c0.6-0.7,1.3-1.1,2-1.4c0.8-0.3,1.6-0.4,2.4-0.4
			c1,0,1.7,0.2,2.4,0.5c0.6,0.3,1.1,0.7,1.5,1.2c0.2-0.5,0.5-0.9,1-1.1c0.5-0.2,1-0.3,1.7-0.3c0.2,0,0.4,0,0.6,0c0.2,0,0.4,0,0.5,0
			c0.2,0,0.3,0,0.5,0.1V115.6z M316.2,108.9c0,1.5,0.2,2.7,0.7,3.6c0.5,0.9,1.3,1.3,2.6,1.3c0.8,0,1.4-0.1,1.8-0.4
			c0.4-0.3,0.6-0.7,0.6-1.2v-7c-0.2-0.2-0.5-0.4-0.9-0.6c-0.4-0.2-0.9-0.4-1.5-0.4C317.3,104.3,316.2,105.8,316.2,108.9z"/>
		<path fill="#0065BD" d="M339.9,107.8c0-0.5,0-0.9,0-1.3c0-0.4-0.1-0.8-0.3-1.1c-0.1-0.3-0.4-0.5-0.7-0.7c-0.3-0.2-0.8-0.2-1.3-0.2
			c-0.8,0-1.5,0.2-2.1,0.5c-0.6,0.3-0.9,0.8-0.9,1.3v10.5h-4.4V93.9c0,0,0.2,0,0.5-0.1c0.3,0,0.7,0,1,0c0.3,0,0.7,0,1,0.1
			c0.3,0.1,0.7,0.2,0.9,0.4c0.3,0.2,0.5,0.4,0.7,0.8c0.2,0.3,0.3,0.8,0.3,1.3v6.5c0.2-0.2,0.4-0.4,0.6-0.6c0.3-0.2,0.6-0.4,0.9-0.6
			c0.4-0.2,0.8-0.3,1.3-0.4c0.5-0.1,1-0.2,1.7-0.2c1.5,0,2.7,0.3,3.4,0.9c0.7,0.6,1.2,1.4,1.4,2.4c0.1,0.5,0.2,1,0.2,1.6
			c0,0.6,0,1.2,0,1.7v9.2h-4.4V107.8z"/>
		<path fill="#0065BD" d="M356.2,114.4c-0.2-0.4-0.2-0.9-0.3-1.4c0-0.5-0.1-1-0.1-1.4V96.6c0.2,0,0.3,0,0.5-0.1c0.2,0,0.3,0,0.5,0
			c0.2,0,0.3,0,0.5,0c0.3,0,0.7,0,1,0.1c0.3,0.1,0.7,0.2,0.9,0.4c0.3,0.2,0.5,0.5,0.7,0.8c0.2,0.3,0.3,0.8,0.3,1.3v2.3h4.6v3.3h-4.6
			v6.9c0,1.5,0.6,2.3,1.9,2.3c0.3,0,0.6-0.1,0.9-0.1c0.3-0.1,0.5-0.2,0.7-0.3c0.2-0.1,0.4-0.2,0.6-0.4c0.2-0.1,0.3-0.2,0.3-0.3
			c0.3,0.5,0.6,0.9,0.7,1.2s0.3,0.7,0.3,1c0,0.3-0.1,0.6-0.3,0.8c-0.2,0.3-0.5,0.5-1,0.8c-0.4,0.2-0.9,0.4-1.5,0.6
			c-0.6,0.1-1.2,0.2-1.9,0.2c-1.3,0-2.4-0.3-3.1-0.8C357,116,356.5,115.3,356.2,114.4z"/>
		<path fill="#0065BD" d="M375.7,114c0.5,0,1-0.1,1.4-0.2c0.4-0.1,0.8-0.3,1.1-0.4c0.3-0.2,0.6-0.4,0.8-0.6c0.2-0.2,0.5-0.4,0.7-0.6
			c0.3,0.3,0.5,0.7,0.8,1.3c0.3,0.5,0.4,0.9,0.4,1.3c0,0.5-0.3,0.9-0.8,1.3c-0.5,0.3-1.1,0.6-1.9,0.9c-0.8,0.3-1.8,0.4-2.9,0.4
			c-1,0-2-0.1-3-0.4c-1-0.3-1.9-0.7-2.6-1.4c-0.8-0.6-1.4-1.5-1.9-2.6c-0.5-1.1-0.7-2.5-0.7-4.1c0-1.4,0.2-2.5,0.6-3.5
			c0.4-1,1-1.8,1.7-2.5c0.7-0.6,1.5-1.1,2.4-1.4c0.9-0.3,1.8-0.5,2.7-0.5c1.2,0,2.2,0.2,3.1,0.6c0.8,0.4,1.5,0.9,2.1,1.5
			c0.5,0.6,0.9,1.4,1.2,2.2c0.2,0.8,0.4,1.7,0.4,2.6c0,0.1,0,0.3,0,0.5c0,0.2,0,0.4,0,0.6c0,0.2,0,0.4,0,0.6c0,0.2,0,0.3-0.1,0.4
			h-9.6c0.1,1.2,0.5,2.2,1.1,3C373.2,113.6,374.3,114,375.7,114z M377.2,107.4c0-1-0.2-1.9-0.6-2.5c-0.4-0.6-1.1-1-2.2-1
			c-0.9,0-1.6,0.3-2.1,0.9c-0.5,0.6-0.8,1.5-0.8,2.6H377.2z"/>
		<path fill="#0065BD" d="M388.6,102.9c0.1-0.2,0.3-0.4,0.5-0.6c0.2-0.2,0.5-0.5,0.8-0.6c0.3-0.2,0.7-0.4,1-0.5
			c0.4-0.1,0.8-0.2,1.2-0.2c0.3,0,0.5,0,0.8,0.1c0.3,0,0.6,0.1,0.8,0.2c0.3,0.1,0.4,0.3,0.6,0.5c0.2,0.2,0.2,0.5,0.2,0.8
			c0,0.5-0.1,1-0.4,1.6c-0.2,0.6-0.5,1.1-0.7,1.6c-0.4-0.3-0.7-0.5-1.1-0.7c-0.4-0.2-0.8-0.2-1.3-0.2c-0.7,0-1.2,0.2-1.7,0.6
			c-0.5,0.4-0.7,0.9-0.7,1.4v10h-4.4v-15.4c0.1,0,0.2,0,0.4-0.1c0.1,0,0.3,0,0.5,0c0.2,0,0.4,0,0.6,0c0.7,0,1.3,0.1,1.8,0.4
			C388.2,101.9,388.5,102.4,388.6,102.9z"/>
		<path fill="#0065BD" d="M401.2,116.8h-4.4v-15.4c0.1,0,0.2,0,0.4-0.1c0.1,0,0.3,0,0.5,0c0.2,0,0.4,0,0.6,0c0.7,0,1.3,0.1,1.8,0.4
			c0.5,0.2,0.8,0.7,1,1.3c0.4-0.5,0.9-1,1.7-1.4c0.8-0.4,1.8-0.6,3.1-0.6c1.2,0,2.1,0.2,2.7,0.6c0.6,0.4,1,0.9,1.3,1.5
			c0.5-0.6,1.1-1.1,1.9-1.5c0.8-0.4,1.8-0.7,3.1-0.7c0.8,0,1.4,0.1,2,0.3c0.6,0.2,1,0.4,1.4,0.7c0.4,0.3,0.7,0.7,0.9,1.1
			c0.2,0.4,0.3,0.8,0.4,1.3c0.1,0.5,0.1,1,0.2,1.6c0,0.6,0,1.2,0,1.7v9.2h-4.4v-9c0-0.5,0-0.9,0-1.3c0-0.4-0.1-0.7-0.2-1
			c-0.1-0.3-0.4-0.5-0.6-0.7c-0.3-0.2-0.7-0.2-1.2-0.2c-0.6,0-1.1,0.1-1.6,0.4c-0.5,0.3-0.9,0.5-1.1,0.8c0.1,0.6,0.1,1.3,0.1,1.9v9
			h-4.4v-9c0-0.5,0-0.9,0-1.3c0-0.4-0.1-0.8-0.3-1.1c-0.2-0.3-0.4-0.5-0.7-0.7c-0.3-0.2-0.7-0.2-1.3-0.2c-0.8,0-1.4,0.2-1.9,0.5
			c-0.5,0.3-0.7,0.8-0.7,1.3V116.8z"/>
		<path fill="#0065BD" d="M428.3,96.2c0,0.7-0.2,1.3-0.7,1.7c-0.5,0.4-1,0.6-1.7,0.6c-0.7,0-1.2-0.2-1.7-0.6c-0.5-0.4-0.7-1-0.7-1.7
			c0-0.7,0.2-1.3,0.7-1.7c0.5-0.4,1-0.7,1.7-0.7c0.7,0,1.2,0.2,1.7,0.7C428.1,94.9,428.3,95.5,428.3,96.2z M428.3,117
			c-0.1,0-0.3,0.1-0.6,0.1c-0.3,0-0.6,0-1,0c-0.4,0-0.8,0-1.2-0.1c-0.3-0.1-0.6-0.2-0.9-0.4c-0.2-0.2-0.4-0.5-0.6-0.8
			c-0.1-0.3-0.2-0.8-0.2-1.3v-13c0,0,0.2-0.1,0.5-0.1c0.3,0,0.7,0,1,0c0.3,0,0.7,0,1,0.1c0.3,0.1,0.7,0.2,0.9,0.4
			c0.3,0.2,0.5,0.4,0.7,0.8c0.2,0.3,0.3,0.8,0.3,1.3V117z"/>
		<path fill="#0065BD" d="M436.8,116.8h-4.4v-15.4c0.1,0,0.2,0,0.4-0.1c0.1,0,0.3,0,0.5,0c0.2,0,0.4,0,0.6,0c0.7,0,1.3,0.1,1.8,0.4
			c0.5,0.2,0.8,0.7,1,1.3c0.4-0.5,0.9-1,1.7-1.4c0.8-0.4,1.8-0.6,3.1-0.6c1.5,0,2.7,0.3,3.4,0.9c0.7,0.6,1.2,1.4,1.4,2.4
			c0.1,0.5,0.2,1,0.2,1.6c0,0.6,0.1,1.2,0.1,1.7v9.2h-4.4v-9c0-0.5,0-0.9-0.1-1.3c0-0.4-0.1-0.8-0.3-1.1c-0.1-0.3-0.4-0.5-0.7-0.7
			c-0.3-0.2-0.8-0.2-1.3-0.2c-0.8,0-1.5,0.2-2.1,0.5c-0.6,0.3-0.9,0.8-0.9,1.3V116.8z"/>
		<path fill="#0065BD" d="M463.4,113c0,1.7,0.2,3,0.7,3.7c-0.4,0.2-0.8,0.3-1.1,0.3c-0.3,0.1-0.7,0.1-1.1,0.1
			c-0.8,0-1.4-0.2-1.8-0.5c-0.4-0.3-0.7-0.7-0.8-1.3c-0.5,0.5-1.1,0.9-1.9,1.3c-0.8,0.3-1.7,0.5-2.9,0.5c-0.6,0-1.2-0.1-1.8-0.2
			c-0.6-0.2-1.1-0.4-1.6-0.8c-0.5-0.4-0.9-0.9-1.2-1.5c-0.3-0.6-0.5-1.4-0.5-2.3c0-1.1,0.3-2,0.8-2.7c0.5-0.7,1.2-1.2,2-1.6
			c0.8-0.4,1.7-0.7,2.6-0.8c0.9-0.2,1.8-0.2,2.6-0.3c0.3,0,0.5,0,0.8,0c0.2,0,0.5,0,0.7,0v-0.6c0-0.8-0.2-1.4-0.7-1.8
			c-0.4-0.3-1.2-0.5-2.2-0.5c-0.9,0-1.8,0.2-2.5,0.5c-0.7,0.3-1.4,0.6-2.1,1c-0.3-0.4-0.5-0.8-0.7-1.2c-0.2-0.4-0.3-0.8-0.3-1
			c0-0.3,0.2-0.6,0.5-0.9c0.3-0.3,0.8-0.5,1.4-0.8c0.6-0.2,1.3-0.4,2-0.6c0.8-0.1,1.6-0.2,2.4-0.2c1.2,0,2.2,0.1,3,0.4
			c0.8,0.2,1.5,0.6,2,1.1c0.5,0.5,0.9,1.1,1.1,1.9c0.2,0.7,0.3,1.6,0.3,2.6V113z M459.2,109.2c-0.2,0-0.3,0-0.5,0
			c-0.2,0-0.3,0-0.5,0c-0.5,0-1.1,0.1-1.6,0.2c-0.5,0.1-1,0.2-1.4,0.5c-0.4,0.2-0.7,0.5-1,0.8c-0.3,0.3-0.4,0.8-0.4,1.3
			c0,0.6,0.2,1.1,0.5,1.5c0.3,0.4,0.9,0.6,1.8,0.6c0.4,0,0.8-0.1,1.2-0.2c0.4-0.1,0.7-0.3,1-0.4c0.3-0.2,0.5-0.4,0.7-0.6
			c0.2-0.2,0.2-0.4,0.2-0.6V109.2z"/>
		<path fill="#0065BD" d="M471.9,117c-0.1,0-0.3,0.1-0.6,0.1c-0.3,0-0.6,0-1,0c-0.4,0-0.7,0-1.1-0.1c-0.3-0.1-0.6-0.2-0.9-0.4
			c-0.3-0.2-0.5-0.5-0.6-0.8c-0.2-0.3-0.2-0.8-0.2-1.3V93.9c0,0,0.2,0,0.5-0.1c0.3,0,0.7,0,1,0c0.3,0,0.7,0,1,0.1
			c0.3,0.1,0.7,0.2,0.9,0.4c0.3,0.2,0.5,0.4,0.7,0.8c0.2,0.3,0.3,0.8,0.3,1.3V117z"/>
		<path fill="#0065BD" d="M488,96.2c0,0.7-0.2,1.3-0.7,1.7c-0.5,0.4-1,0.6-1.7,0.6c-0.7,0-1.2-0.2-1.7-0.6c-0.5-0.4-0.7-1-0.7-1.7
			c0-0.7,0.2-1.3,0.7-1.7c0.5-0.4,1-0.7,1.7-0.7c0.6,0,1.2,0.2,1.7,0.7C487.8,94.9,488,95.5,488,96.2z M488,117
			c-0.1,0-0.3,0.1-0.6,0.1c-0.3,0-0.6,0-1,0c-0.4,0-0.8,0-1.2-0.1c-0.3-0.1-0.6-0.2-0.9-0.4c-0.3-0.2-0.4-0.5-0.6-0.8
			c-0.1-0.3-0.2-0.8-0.2-1.3v-13c0,0,0.2-0.1,0.5-0.1c0.3,0,0.7,0,1,0c0.3,0,0.7,0,1,0.1c0.3,0.1,0.7,0.2,0.9,0.4
			c0.3,0.2,0.5,0.4,0.7,0.8c0.2,0.3,0.3,0.8,0.3,1.3V117z"/>
		<path fill="#0065BD" d="M496.6,117c-0.1,0-0.3,0.1-0.6,0.1c-0.3,0-0.6,0-1,0c-0.4,0-0.7,0-1.1-0.1c-0.3-0.1-0.6-0.2-0.9-0.4
			c-0.3-0.2-0.5-0.5-0.6-0.8c-0.2-0.3-0.2-0.8-0.2-1.3V93.9c0,0,0.2,0,0.5-0.1c0.3,0,0.7,0,1,0c0.3,0,0.7,0,1,0.1
			c0.3,0.1,0.7,0.2,0.9,0.4c0.3,0.2,0.5,0.4,0.7,0.8c0.2,0.3,0.3,0.8,0.3,1.3V117z"/>
		<path fill="#0065BD" d="M505.2,117c-0.1,0-0.3,0.1-0.6,0.1c-0.3,0-0.6,0-1,0c-0.4,0-0.7,0-1.1-0.1c-0.3-0.1-0.6-0.2-0.9-0.4
			c-0.3-0.2-0.5-0.5-0.6-0.8c-0.2-0.3-0.2-0.8-0.2-1.3V93.9c0,0,0.2,0,0.5-0.1c0.3,0,0.7,0,1,0c0.3,0,0.7,0,1,0.1
			c0.3,0.1,0.7,0.2,0.9,0.4c0.3,0.2,0.5,0.4,0.7,0.8c0.2,0.3,0.3,0.8,0.3,1.3V117z"/>
		<path fill="#0065BD" d="M513.8,116.8h-4.4v-15.4c0.1,0,0.2,0,0.4-0.1c0.1,0,0.3,0,0.5,0c0.2,0,0.4,0,0.6,0c0.7,0,1.3,0.1,1.8,0.4
			c0.5,0.2,0.8,0.7,1,1.3c0.4-0.5,0.9-1,1.7-1.4c0.8-0.4,1.8-0.6,3.1-0.6c1.5,0,2.7,0.3,3.4,0.9c0.7,0.6,1.2,1.4,1.4,2.4
			c0.1,0.5,0.2,1,0.2,1.6c0,0.6,0,1.2,0,1.7v9.2H519v-9c0-0.5,0-0.9,0-1.3c0-0.4-0.1-0.8-0.3-1.1c-0.1-0.3-0.4-0.5-0.7-0.7
			c-0.3-0.2-0.8-0.2-1.3-0.2c-0.8,0-1.5,0.2-2.1,0.5c-0.6,0.3-0.9,0.8-0.9,1.3V116.8z"/>
		<path fill="#0065BD" d="M535.6,114c0.5,0,1-0.1,1.4-0.2c0.4-0.1,0.8-0.3,1.1-0.4c0.3-0.2,0.6-0.4,0.8-0.6c0.2-0.2,0.5-0.4,0.7-0.6
			c0.3,0.3,0.5,0.7,0.8,1.3c0.3,0.5,0.4,0.9,0.4,1.3c0,0.5-0.3,0.9-0.8,1.3c-0.5,0.3-1.1,0.6-1.9,0.9c-0.8,0.3-1.8,0.4-2.9,0.4
			c-1,0-2-0.1-3-0.4c-1-0.3-1.9-0.7-2.6-1.4c-0.8-0.6-1.4-1.5-1.9-2.6c-0.5-1.1-0.7-2.5-0.7-4.1c0-1.4,0.2-2.5,0.6-3.5
			c0.4-1,1-1.8,1.7-2.5c0.7-0.6,1.5-1.1,2.4-1.4c0.9-0.3,1.8-0.5,2.7-0.5c1.2,0,2.2,0.2,3.1,0.6c0.8,0.4,1.5,0.9,2.1,1.5
			c0.5,0.6,0.9,1.4,1.2,2.2c0.2,0.8,0.4,1.7,0.4,2.6c0,0.1,0,0.3,0,0.5c0,0.2,0,0.4,0,0.6c0,0.2,0,0.4,0,0.6c0,0.2,0,0.3,0,0.4h-9.6
			c0.1,1.2,0.5,2.2,1.1,3C533.2,113.6,534.2,114,535.6,114z M537.1,107.4c0-1-0.2-1.9-0.6-2.5c-0.4-0.6-1.1-1-2.2-1
			c-0.9,0-1.6,0.3-2.1,0.9c-0.5,0.6-0.8,1.5-0.8,2.6H537.1z"/>
		<path fill="#0065BD" d="M555,103.2c0,0.3-0.1,0.7-0.3,1.2c-0.2,0.4-0.4,0.9-0.7,1.3c-0.2-0.2-0.5-0.4-0.8-0.5
			c-0.3-0.2-0.7-0.4-1.1-0.5c-0.4-0.2-0.8-0.3-1.2-0.4c-0.4-0.1-0.8-0.2-1.3-0.2c-0.2,0-0.5,0-0.7,0c-0.3,0-0.5,0.1-0.7,0.2
			c-0.2,0.1-0.4,0.2-0.5,0.4c-0.1,0.2-0.2,0.4-0.2,0.7c0,0.7,0.8,1.3,2.4,1.6c0.6,0.1,1.3,0.3,1.9,0.5c0.6,0.2,1.2,0.5,1.7,0.9
			c0.5,0.4,0.9,0.8,1.2,1.4c0.3,0.6,0.5,1.3,0.5,2.1c0,0.9-0.2,1.6-0.5,2.3c-0.3,0.7-0.8,1.2-1.4,1.7s-1.3,0.8-2.1,1
			s-1.7,0.4-2.6,0.4c-1,0-1.8-0.1-2.4-0.2s-1.2-0.3-1.6-0.5c-0.3-0.1-0.6-0.3-1-0.6c-0.4-0.2-0.5-0.6-0.5-1c0-0.4,0.1-0.8,0.3-1.2
			c0.2-0.4,0.5-0.8,0.7-1.3c0.2,0.2,0.4,0.4,0.7,0.5c0.3,0.2,0.6,0.4,1,0.5c0.4,0.2,0.8,0.3,1.2,0.4c0.4,0.1,0.9,0.2,1.3,0.2
			c0.3,0,0.6,0,0.9-0.1c0.3,0,0.6-0.1,0.8-0.3c0.2-0.1,0.4-0.3,0.6-0.5c0.2-0.2,0.2-0.5,0.2-0.8c0-0.6-0.2-1.1-0.7-1.3
			c-0.5-0.3-1.2-0.5-2.2-0.7c-0.6-0.1-1.2-0.3-1.8-0.5c-0.6-0.2-1.1-0.5-1.6-0.9c-0.5-0.4-0.8-0.8-1.1-1.3c-0.3-0.5-0.4-1.2-0.4-2
			c0-0.8,0.2-1.5,0.5-2c0.3-0.6,0.8-1.1,1.4-1.5c0.6-0.4,1.2-0.7,2-0.9c0.8-0.2,1.5-0.3,2.4-0.3c0.9,0,1.6,0.1,2.3,0.2
			c0.7,0.1,1.3,0.3,1.8,0.5C554.5,102.1,555,102.6,555,103.2z"/>
		<path fill="#0065BD" d="M569,103.2c0,0.3-0.1,0.7-0.3,1.2c-0.2,0.4-0.4,0.9-0.7,1.3c-0.2-0.2-0.5-0.4-0.8-0.5
			c-0.3-0.2-0.7-0.4-1.1-0.5c-0.4-0.2-0.8-0.3-1.2-0.4c-0.4-0.1-0.9-0.2-1.3-0.2c-0.2,0-0.5,0-0.7,0c-0.3,0-0.5,0.1-0.7,0.2
			c-0.2,0.1-0.4,0.2-0.5,0.4c-0.1,0.2-0.2,0.4-0.2,0.7c0,0.7,0.8,1.3,2.4,1.6c0.7,0.1,1.3,0.3,1.9,0.5c0.6,0.2,1.2,0.5,1.7,0.9
			c0.5,0.4,0.9,0.8,1.2,1.4c0.3,0.6,0.5,1.3,0.5,2.1c0,0.9-0.2,1.6-0.5,2.3c-0.3,0.7-0.8,1.2-1.4,1.7c-0.6,0.5-1.3,0.8-2.1,1
			c-0.8,0.2-1.7,0.4-2.6,0.4c-1,0-1.8-0.1-2.4-0.2c-0.7-0.1-1.2-0.3-1.6-0.5c-0.3-0.1-0.6-0.3-1-0.6c-0.4-0.2-0.5-0.6-0.5-1
			c0-0.4,0.1-0.8,0.3-1.2c0.2-0.4,0.5-0.8,0.7-1.3c0.2,0.2,0.4,0.4,0.7,0.5c0.3,0.2,0.6,0.4,1,0.5c0.4,0.2,0.8,0.3,1.2,0.4
			c0.4,0.1,0.9,0.2,1.3,0.2c0.3,0,0.6,0,0.9-0.1c0.3,0,0.6-0.1,0.8-0.3c0.2-0.1,0.4-0.3,0.6-0.5c0.2-0.2,0.2-0.5,0.2-0.8
			c0-0.6-0.2-1.1-0.7-1.3c-0.5-0.3-1.2-0.5-2.2-0.7c-0.6-0.1-1.2-0.3-1.8-0.5c-0.6-0.2-1.1-0.5-1.6-0.9c-0.5-0.4-0.8-0.8-1.1-1.3
			c-0.3-0.5-0.4-1.2-0.4-2c0-0.8,0.2-1.5,0.5-2c0.3-0.6,0.8-1.1,1.4-1.5c0.6-0.4,1.2-0.7,2-0.9c0.8-0.2,1.6-0.3,2.4-0.3
			c0.9,0,1.6,0.1,2.3,0.2c0.7,0.1,1.3,0.3,1.8,0.5C568.5,102.1,569,102.6,569,103.2z"/>
	</g>
</g>
</svg>
